<svg width="131" height="184" viewBox="0 0 131 184" fill="none" xmlns="http://www.w3.org/2000/svg">
<path d="M88.228 64.1015C87.0999 64.0985 85.9823 64.3054 84.94 64.7102C83.8977 65.115 82.9514 65.7096 82.1558 66.4596L79.51 68.9413L76.8644 66.4604C76.0669 65.7126 75.1203 65.1194 74.0784 64.7146C73.0364 64.3099 71.9197 64.1015 70.792 64.1015C69.6642 64.1015 68.5475 64.3097 67.5056 64.7144C66.4636 65.1191 65.5169 65.7122 64.7194 66.46C63.9219 67.2078 63.2893 68.0955 62.8577 69.0726C62.4261 70.0496 62.204 71.0968 62.2039 72.1543C62.2039 73.2119 62.426 74.2591 62.8575 75.2361C63.2891 76.2132 63.9216 77.101 64.719 77.8488L77.9798 90.2842C78.1806 90.4725 78.4191 90.622 78.6816 90.7239C78.944 90.8259 79.2253 90.8783 79.5094 90.8783C79.7935 90.8783 80.0748 90.8259 80.3373 90.7239C80.5997 90.622 80.8382 90.4725 81.0391 90.2842L94.3009 77.8488C95.502 76.7225 96.3199 75.2876 96.6512 73.7254C96.9826 72.1632 96.8124 70.544 96.1624 69.0725C95.5124 67.601 94.4116 66.3433 92.9992 65.4584C91.5869 64.5736 89.9265 64.1014 88.228 64.1015V64.1015ZM91.2413 74.9794L79.51 85.9809L67.7786 74.9794C66.9976 74.2266 66.564 73.2157 66.5717 72.1655C66.5794 71.1152 67.0277 70.11 67.8197 69.3673C68.6117 68.6246 69.6837 68.2042 70.8037 68.1971C71.9238 68.1899 73.0018 68.5965 73.8045 69.329L77.9798 73.2443C78.1806 73.4327 78.4191 73.5821 78.6816 73.684C78.944 73.786 79.2253 73.8385 79.5094 73.8385C79.7935 73.8385 80.0748 73.786 80.3373 73.684C80.5997 73.5821 80.8382 73.4327 81.0391 73.2443L85.2154 69.3287C86.0178 68.5941 87.0965 68.1857 88.2178 68.192C89.3392 68.1983 90.4126 68.6188 91.2055 69.3623C91.9984 70.1058 92.4469 71.1125 92.4536 72.164C92.4603 73.2155 92.0247 74.2271 91.2413 74.9794Z" fill="#1D566E"/>
<path d="M121.714 32.7397L63.3073 0.283299C62.9724 0.0972498 62.5902 -0.000621806 62.2009 2.97263e-06C61.8117 0.000627751 61.4298 0.0997257 61.0956 0.286849L2.68896 32.9768C2.36749 33.1567 2.10131 33.4118 1.91646 33.7171C1.73161 34.0224 1.63442 34.3674 1.6344 34.7185V119.917C1.6344 120.455 1.86231 120.971 2.26799 121.351C2.67367 121.731 3.22389 121.945 3.79761 121.945H3.80221L120.616 121.712C121.188 121.71 121.738 121.496 122.142 121.116C122.547 120.736 122.774 120.22 122.774 119.683V34.485C122.774 34.1328 122.676 33.7867 122.49 33.4807C122.305 33.1747 122.037 32.9194 121.714 32.7397V32.7397ZM44.8986 65.0822V70.9984C44.8986 71.3751 45.0105 71.7444 45.2217 72.0648C45.4329 72.3853 45.735 72.6442 46.0943 72.8127L53.6326 76.3472C55.0352 76.9995 56.2589 77.9456 57.2092 79.1124C58.1596 80.2791 58.811 81.6352 59.1131 83.0758L60.0833 87.6245C60.167 88.0172 60.3729 88.3779 60.6749 88.6611L60.8942 88.8667C61.648 89.5722 62.0974 90.5138 62.1563 91.5109C62.2152 92.5081 61.8794 93.4905 61.2133 94.2697L60.5159 95.0872L59.8185 95.9047C58.9467 96.9267 57.8547 97.7648 56.6139 98.3641C55.3732 98.9635 54.0116 99.3107 52.618 99.3831C51.2244 99.4554 49.8302 99.2513 48.5265 98.7841C47.2228 98.3168 46.0388 97.5969 45.0519 96.6714L44.2659 95.9343C43.8602 95.5539 43.3099 95.3402 42.7362 95.3402C42.1625 95.3402 41.6122 95.5539 41.2065 95.9343C40.8009 96.3148 40.5729 96.8307 40.5729 97.3688C40.5729 97.9068 40.8009 98.4227 41.2065 98.8032L41.9926 99.5403C43.3162 100.782 44.8876 101.766 46.6171 102.438C48.3465 103.109 50.2002 103.455 52.0721 103.455C53.944 103.454 55.7974 103.108 57.5266 102.436C59.2558 101.764 60.8269 100.778 62.1499 99.5367L64.8415 102.694C65.1221 103.023 65.505 103.262 65.9369 103.378L66.5191 103.534C69.8998 104.451 72.9196 106.277 75.205 108.787C77.4903 111.297 78.941 114.38 79.3775 117.655H29.191L28.3528 115.099C26.1373 108.363 25.5103 101.256 26.5154 94.2706C27.5205 87.285 30.1335 80.588 34.1734 74.6437L35.9083 72.0875C35.9482 72.0287 35.9848 71.968 36.0181 71.9057L36.5186 70.9675C37.326 69.4394 38.505 68.1107 39.9607 67.0884C41.4163 66.0661 43.1077 65.3789 44.8986 65.0822ZM67.7886 99.6539L64.9605 96.3388C66.0753 94.8243 66.6073 92.9992 66.469 91.1635C66.3307 89.3278 65.5304 87.5909 64.1996 86.2385L63.3554 82.2798C62.926 80.2329 62.0003 78.3059 60.65 76.648C59.2996 74.99 57.5608 73.6455 55.5678 72.7184L49.225 69.7448V63.6303L58.0736 62.876C58.4406 62.8447 58.7929 62.726 59.0972 62.5313C59.4016 62.3365 59.6478 62.0721 59.8126 61.7631L61.9758 57.706C62.2271 57.2254 62.2657 56.6712 62.0831 56.164C61.9005 55.6569 61.5116 55.238 61.0011 54.9986C60.4905 54.7592 59.8998 54.7187 59.3576 54.886C58.8154 55.0532 58.3656 55.4146 58.1064 55.8915L56.4818 58.9381L35.1685 60.7544L32.756 57.3607L33.0391 57.1832C34.6496 56.1725 35.8748 54.7069 36.5369 52.9991C37.1991 51.2912 37.2638 49.43 36.7217 47.6854L43.7029 44.4121C44.1767 44.1899 44.5472 43.8124 44.7439 43.3512L47.3939 37.1388C47.8016 36.1803 48.4277 35.3169 49.2283 34.6089C50.0289 33.9009 50.9848 33.3654 52.0291 33.0399L57.1667 31.4338C57.9567 31.1884 58.7719 31.0211 59.599 30.9346C60.4648 31.8677 61.2423 32.8696 61.9228 33.9292L64.126 37.3728C65.6998 39.8324 66.531 42.6468 66.5307 45.5151V49.7565C66.5307 52.4465 67.6703 55.0263 69.6987 56.9284C71.7271 58.8305 74.4782 59.8991 77.3468 59.8991C80.2154 59.8991 82.9665 58.8305 84.9949 56.9284C87.0233 55.0263 88.1628 52.4465 88.1628 49.7565C88.1624 48.9342 88.1073 48.1127 87.9979 47.2969C88.8642 48.3462 89.6929 49.4259 90.4839 50.5362C97.5267 60.4665 101.978 71.8118 103.478 83.6544C104.779 93.9206 103.809 104.328 100.628 114.227L99.5197 117.697L83.7342 117.728C83.3021 113.568 81.5529 109.623 78.7114 106.403C75.8698 103.182 72.0659 100.831 67.7886 99.6539V99.6539ZM29.9481 53.4119C29.778 53.1726 29.6641 52.902 29.6139 52.6183C29.5638 52.3345 29.5786 52.044 29.6573 51.766C29.736 51.488 29.8769 51.2289 30.0706 51.0058C30.2643 50.7828 30.5063 50.6009 30.7807 50.4723L32.7276 49.5595C32.8305 50.3792 32.69 51.2097 32.3217 51.9593C31.9535 52.709 31.3716 53.3488 30.6403 53.8082L30.3575 53.9857L29.9481 53.4119ZM78.1385 37.9051C79.9273 39.3906 81.36 41.2148 82.3422 43.2575C83.3243 45.3001 83.8336 47.5148 83.8364 49.7555C83.8405 50.8864 83.5067 51.9958 82.8726 52.9579C82.2386 53.9199 81.3298 54.6962 80.2493 55.1985C79.3474 55.6188 78.354 55.8375 77.3469 55.8375C76.3398 55.8375 75.3464 55.6188 74.4445 55.1985C73.3639 54.6962 72.4551 53.92 71.821 52.9579C71.1869 51.9959 70.853 50.8864 70.8571 49.7555V45.5151C70.8568 41.9127 69.8128 38.378 67.8365 35.2888L65.6332 31.8451C65.5705 31.7472 65.5018 31.6527 65.4378 31.5555C69.058 32.478 72.4736 33.9991 75.5237 36.0472C76.416 36.6444 77.2876 37.2637 78.1385 37.9051ZM118.448 117.659L104.039 117.687L104.773 115.393C108.124 104.963 109.146 93.9972 107.774 83.1805C106.195 70.7024 101.505 58.7482 94.0846 48.2848C90.4622 43.1839 86.0243 38.6361 80.9269 34.8009C80.4045 34.3719 79.8585 33.9642 79.2877 33.5815C79.2216 33.5375 79.1529 33.4969 79.0819 33.4601C78.7369 33.2192 78.39 32.9798 78.0393 32.745C73.8891 29.9569 69.1517 28.0323 64.1442 27.1001C61.3649 26.5798 58.4891 26.7477 55.8001 27.5872L50.6625 29.1931C49.0215 29.7045 47.5194 30.5459 46.2612 31.6583C45.003 32.7708 44.019 34.1275 43.3781 35.6336L41.0319 41.1297L28.8452 46.8435C28.0221 47.2294 27.296 47.775 26.715 48.4442C26.134 49.1133 25.7114 49.8907 25.4752 50.7247C25.239 51.5586 25.1947 52.4302 25.3451 53.2815C25.4955 54.1328 25.8373 54.9443 26.3477 55.6623L27.9553 57.9231L32.2817 64.0086C32.4977 64.3124 32.7971 64.5558 33.1483 64.7133C33.4995 64.8708 33.8895 64.9365 34.2772 64.9035L36.2033 64.7392C34.7379 65.9916 33.5323 67.4875 32.6473 69.1512L32.1965 69.9966L30.5216 72.4643C26.145 78.9039 23.3142 86.159 22.2253 93.7267C21.1365 101.294 21.8157 108.994 24.2159 116.291L24.7259 117.845L5.96082 117.883V35.8702L62.2084 4.38878L118.448 35.641V117.659Z" fill="#1D566E"/>
<path d="M51.3882 87.9873C53.031 87.9873 54.3626 86.7385 54.3626 85.1981C54.3626 83.6577 53.031 82.4089 51.3882 82.4089C49.7455 82.4089 48.4138 83.6577 48.4138 85.1981C48.4138 86.7385 49.7455 87.9873 51.3882 87.9873Z" fill="#1D566E"/>
<path d="M52.7403 46.6561C54.383 46.6561 55.7147 45.4074 55.7147 43.8669C55.7147 42.3265 54.383 41.0777 52.7403 41.0777C51.0976 41.0777 49.7659 42.3265 49.7659 43.8669C49.7659 45.4074 51.0976 46.6561 52.7403 46.6561Z" fill="#1D566E"/>
<path d="M48.9422 128.35C49.0755 128.1 49.3005 127.925 49.6172 127.825C49.9339 127.725 50.3339 127.675 50.8172 127.675C51.3005 127.675 51.6839 127.717 51.9672 127.8C52.2505 127.883 52.4672 127.983 52.6172 128.1C52.7672 128.217 52.8839 128.383 52.9672 128.6C53.0505 128.883 53.0922 129.317 53.0922 129.9V143.775C53.0922 144.158 53.0755 144.45 53.0422 144.65C53.0255 144.833 52.9505 145.05 52.8172 145.3C52.5839 145.75 51.9339 145.975 50.8672 145.975C49.7005 145.975 49.0172 145.667 48.8172 145.05C48.7172 144.767 48.6672 144.333 48.6672 143.75V138.675H42.0422V143.775C42.0422 144.158 42.0255 144.45 41.9922 144.65C41.9755 144.833 41.9005 145.05 41.7672 145.3C41.5339 145.75 40.8839 145.975 39.8172 145.975C38.6505 145.975 37.9672 145.667 37.7672 145.05C37.6672 144.767 37.6172 144.333 37.6172 143.75V129.875C37.6172 129.492 37.6255 129.208 37.6422 129.025C37.6755 128.825 37.7589 128.6 37.8922 128.35C38.1255 127.9 38.7755 127.675 39.8422 127.675C41.0089 127.675 41.7005 127.983 41.9172 128.6C42.0005 128.883 42.0422 129.317 42.0422 129.9V135H48.6672V129.875C48.6672 129.492 48.6755 129.208 48.6922 129.025C48.7255 128.825 48.8089 128.6 48.9422 128.35ZM62.1977 145.95C60.5143 145.95 59.1143 145.317 57.9977 144.05C56.8977 142.767 56.3477 141.208 56.3477 139.375V135C56.3477 134.6 56.356 134.308 56.3727 134.125C56.406 133.942 56.481 133.725 56.5977 133.475C56.831 133.025 57.481 132.8 58.5477 132.8C59.7143 132.8 60.3977 133.117 60.5977 133.75C60.6977 134.017 60.7477 134.442 60.7477 135.025V139.4C60.7477 140.083 60.9393 140.617 61.3227 141C61.7227 141.383 62.2477 141.575 62.8977 141.575C63.5643 141.575 64.0977 141.375 64.4977 140.975C64.9143 140.575 65.1227 140.05 65.1227 139.4V134.975C65.1227 134.592 65.131 134.308 65.1477 134.125C65.181 133.925 65.2643 133.7 65.3977 133.45C65.6143 133.017 66.256 132.8 67.3227 132.8C68.3727 132.8 69.0143 133.025 69.2477 133.475C69.3643 133.725 69.431 133.95 69.4477 134.15C69.481 134.333 69.4977 134.617 69.4977 135V143.85C69.4977 144.217 69.481 144.5 69.4477 144.7C69.431 144.883 69.356 145.092 69.2227 145.325C68.9727 145.758 68.331 145.975 67.2977 145.975C66.281 145.975 65.656 145.775 65.4227 145.375C65.256 145.092 65.1727 144.75 65.1727 144.35C65.106 144.467 64.956 144.633 64.7227 144.85C64.4893 145.067 64.2643 145.25 64.0477 145.4C63.481 145.767 62.8643 145.95 62.1977 145.95ZM81.1088 144.35C80.4755 145.183 79.4671 145.6 78.0838 145.6C76.7005 145.6 75.4005 144.967 74.1838 143.7C72.9838 142.417 72.3838 140.925 72.3838 139.225C72.3838 137.525 72.9921 136.033 74.2088 134.75C75.4255 133.467 76.7588 132.825 78.2088 132.825C78.7755 132.825 79.2921 132.933 79.7588 133.15C80.2255 133.35 80.5421 133.542 80.7088 133.725C80.8921 133.892 81.0338 134.05 81.1338 134.2C81.1838 133.733 81.3505 133.383 81.6338 133.15C81.9338 132.9 82.4088 132.775 83.0588 132.775C83.7088 132.775 84.1838 132.825 84.4838 132.925C84.7838 133.025 84.9921 133.2 85.1088 133.45C85.2421 133.683 85.3171 133.892 85.3338 134.075C85.3671 134.258 85.3838 134.542 85.3838 134.925V145.275C85.3838 147.192 84.7171 148.733 83.3838 149.9C82.0505 151.083 80.5505 151.675 78.8838 151.675C77.6171 151.675 76.4088 151.367 75.2588 150.75C74.1088 150.133 73.5338 149.575 73.5338 149.075C73.5338 148.425 73.7838 147.85 74.2838 147.35C74.6005 147 74.8421 146.758 75.0088 146.625C75.1921 146.492 75.4005 146.425 75.6338 146.425C75.8671 146.425 76.1088 146.525 76.3588 146.725C77.1588 147.342 78.0255 147.65 78.9588 147.65C79.5921 147.65 80.1088 147.4 80.5088 146.9C80.9088 146.4 81.1088 145.8 81.1088 145.1V144.35ZM76.6588 139.25C76.6588 139.783 76.8671 140.267 77.2838 140.7C77.7171 141.133 78.2338 141.35 78.8338 141.35C79.4505 141.35 79.9588 141.133 80.3588 140.7C80.7588 140.25 80.9588 139.767 80.9588 139.25C80.9588 138.717 80.7671 138.225 80.3838 137.775C80.0005 137.308 79.4838 137.075 78.8338 137.075C78.1838 137.075 77.6588 137.3 77.2588 137.75C76.8588 138.2 76.6588 138.7 76.6588 139.25Z" fill="#1D566E"/>
</svg>
