<svg width="78" height="119" viewBox="0 0 78 119" fill="none" xmlns="http://www.w3.org/2000/svg">
<path d="M17 24C17 12.9543 25.9543 4 37 4H47C58.0457 4 67 12.9543 67 24V54H17V24Z" fill="#45EBA5"/>
<path d="M42 93L17 54L67 54L42 93Z" fill="#45EBA5"/>
<path d="M60.1115 23.3479C59.8601 20.9831 58.752 18.7917 56.9963 17.1874V17.1874C55.9826 16.2706 54.7858 15.5795 53.4852 15.16C52.1846 14.7405 50.8099 14.6022 49.4521 14.7541C44.5655 15.2709 41.0864 21.0386 40.9793 25.8267C39.8698 21.1597 35.2723 16.2318 30.3857 16.7486C29.0319 16.8875 27.7233 17.313 26.5468 17.9968C25.3703 18.6805 24.3528 19.6069 23.5619 20.7145V20.7145C22.2062 22.6331 21.5962 24.9805 21.8458 27.3174C22.6315 34.9075 30.1274 38.3795 36.5355 42.7411L43.3523 47.2756L49.0065 41.4039C54.3045 35.872 60.9062 30.9527 60.1115 23.3479Z" fill="#1D566E"/>
</svg>
