<svg width="120" height="123" viewBox="0 0 120 123" fill="none" xmlns="http://www.w3.org/2000/svg">
<path d="M85.1645 66.4646C84.055 66.4615 82.9559 66.6745 81.9308 67.0911C80.9057 67.5077 79.975 68.1197 79.1926 68.8917L76.5904 71.4459L73.9885 68.8925C73.2042 68.1228 72.2731 67.5122 71.2484 67.0957C70.2237 66.6791 69.1254 66.4646 68.0163 66.4646C66.9071 66.4646 65.8088 66.6789 64.7841 67.0954C63.7594 67.512 62.8283 68.1225 62.0439 68.8921C61.2596 69.6617 60.6375 70.5755 60.213 71.5811C59.7885 72.5867 59.57 73.6645 59.5699 74.753C59.5699 75.8414 59.7883 76.9193 60.2128 77.9249C60.6372 78.9305 61.2593 79.8443 62.0435 80.614L75.0854 93.4131C75.283 93.6069 75.5175 93.7607 75.7757 93.8657C76.0338 93.9706 76.3105 94.0246 76.5899 94.0246C76.8693 94.0246 77.1459 93.9706 77.4041 93.8657C77.6622 93.7607 77.8967 93.6069 78.0943 93.4131L91.1373 80.614C92.3185 79.4548 93.1229 77.9779 93.4488 76.37C93.7746 74.7621 93.6073 73.0955 92.968 71.581C92.3287 70.0664 91.2461 68.7719 89.8571 67.8612C88.468 66.9505 86.835 66.4645 85.1645 66.4646ZM88.1282 77.6607L76.5904 88.9839L65.0526 77.6607C64.2845 76.8859 63.8581 75.8454 63.8656 74.7644C63.8732 73.6834 64.3142 72.6488 65.0931 71.8844C65.872 71.12 66.9263 70.6873 68.0278 70.68C69.1294 70.6726 70.1896 71.0911 70.9791 71.845L75.0854 75.8748C75.283 76.0687 75.5175 76.2225 75.7757 76.3274C76.0338 76.4323 76.3105 76.4864 76.5899 76.4864C76.8693 76.4864 77.1459 76.4323 77.4041 76.3274C77.6622 76.2225 77.8967 76.0687 78.0943 75.8748L82.2017 71.8447C82.9908 71.0886 84.0518 70.6683 85.1546 70.6747C86.2574 70.6812 87.3131 71.114 88.093 71.8793C88.8728 72.6445 89.3138 73.6806 89.3204 74.7629C89.327 75.8451 88.8986 76.8863 88.1282 77.6607Z" fill="#1D566E"/>
<path d="M118.098 34.1855L60.6551 0.779866C60.3257 0.588375 59.9498 0.487641 59.567 0.488284C59.1842 0.488927 58.8086 0.590924 58.48 0.78352L1.03716 34.4296C0.720988 34.6147 0.459202 34.8773 0.277405 35.1915C0.0956073 35.5058 2.2912e-05 35.8609 0 36.2222V123.912C0 124.466 0.224148 124.997 0.623134 125.388C1.02212 125.78 1.56326 126 2.12751 126H2.13203L117.018 125.76C117.581 125.758 118.121 125.538 118.519 125.147C118.917 124.755 119.141 124.225 119.141 123.672V35.9819C119.141 35.6194 119.044 35.2632 118.862 34.9483C118.679 34.6333 118.416 34.3705 118.098 34.1855ZM42.5502 67.474V73.5633C42.5502 73.951 42.6603 74.331 42.868 74.6609C43.0757 74.9907 43.3728 75.2572 43.7262 75.4306L51.1401 79.0684C52.5195 79.7399 53.7231 80.7137 54.6577 81.9145C55.5923 83.1154 56.233 84.5112 56.5301 85.9938L57.4843 90.6756C57.5667 91.0798 57.7691 91.451 58.0662 91.7425L58.2818 91.9541C59.0232 92.6802 59.4652 93.6494 59.5231 94.6757C59.581 95.702 59.2508 96.7131 58.5956 97.5151L57.9098 98.3566L57.2239 99.198C56.3665 100.25 55.2925 101.112 54.0722 101.729C52.852 102.346 51.5128 102.704 50.1422 102.778C48.7716 102.853 47.4005 102.643 46.1183 102.162C44.836 101.681 43.6716 100.94 42.701 99.9872L41.9279 99.2285C41.5289 98.8369 40.9878 98.617 40.4235 98.617C39.8592 98.617 39.3181 98.8369 38.9191 99.2285C38.5201 99.62 38.2959 100.151 38.2959 100.705C38.2959 101.259 38.5201 101.79 38.9191 102.181L39.6922 102.94C40.9939 104.217 42.5394 105.231 44.2403 105.922C45.9412 106.613 47.7643 106.969 49.6053 106.969C51.4463 106.968 53.2692 106.612 54.9699 105.92C56.6705 105.228 58.2156 104.214 59.5169 102.936L62.164 106.186C62.44 106.525 62.8165 106.77 63.2413 106.889L63.8139 107.05C67.1388 107.994 70.1088 109.874 72.3564 112.457C74.6041 115.04 76.0308 118.213 76.4601 121.584H27.1018L26.2774 118.953C24.0985 112.021 23.4819 104.706 24.4704 97.5161C25.4589 90.3262 28.0288 83.4333 32.002 77.3151L33.7083 74.6842C33.7475 74.6237 33.7836 74.5612 33.8163 74.4971L34.3085 73.5314C35.1026 71.9587 36.2622 70.591 37.6938 69.5389C39.1254 68.4867 40.7889 67.7794 42.5502 67.474ZM65.0625 103.057L62.281 99.6448C63.3774 98.086 63.9007 96.2075 63.7647 94.3181C63.6287 92.4288 62.8415 90.6411 61.5327 89.2491L60.7024 85.1746C60.2801 83.0678 59.3697 81.0845 58.0416 79.3781C56.7136 77.6716 55.0034 76.2878 53.0434 75.3335L46.8052 72.273V65.9797L55.5078 65.2032C55.8687 65.1711 56.2152 65.0489 56.5145 64.8485C56.8138 64.648 57.056 64.3758 57.2181 64.0578L59.3456 59.8821C59.5928 59.3874 59.6307 58.817 59.4511 58.295C59.2715 57.773 58.889 57.3419 58.3869 57.0955C57.8848 56.8491 57.3039 56.8074 56.7706 56.9795C56.2373 57.1517 55.795 57.5237 55.54 58.0145L53.9423 61.1502L32.9807 63.0196L30.608 59.5266L30.8864 59.3439C32.4703 58.3037 33.6753 56.7952 34.3265 55.0375C34.9778 53.2797 35.0414 51.364 34.5082 49.5683L41.3742 46.1993C41.8403 45.9707 42.2046 45.5821 42.3981 45.1074L45.0043 38.7133C45.4053 37.7268 46.0211 36.8381 46.8085 36.1094C47.5959 35.3807 48.536 34.8296 49.563 34.4945L54.6159 32.8415C55.3928 32.5889 56.1946 32.4167 57.008 32.3276C57.8595 33.288 58.6242 34.3193 59.2935 35.4098L61.4603 38.9542C63.0081 41.4857 63.8256 44.3824 63.8253 47.3346V51.7C63.8253 54.4687 64.9461 57.124 66.941 59.0817C68.9359 61.0395 71.6416 62.1393 74.4629 62.1393C77.2841 62.1393 79.9899 61.0395 81.9848 59.0817C83.9797 57.124 85.1004 54.4687 85.1004 51.7C85.1001 50.8537 85.0459 50.0082 84.9382 49.1685C85.7903 50.2485 86.6053 51.3598 87.3833 52.5026C94.3098 62.7233 98.6878 74.4004 100.163 86.5894C101.443 97.1558 100.489 107.868 97.3602 118.056L96.2699 121.627L80.7449 121.66C80.32 117.378 78.5996 113.318 75.805 110.003C73.0103 106.688 69.2692 104.269 65.0625 103.057ZM27.8465 55.4624C27.6791 55.216 27.5671 54.9376 27.5178 54.6455C27.4685 54.3535 27.483 54.0544 27.5605 53.7683C27.6379 53.4822 27.7765 53.2155 27.9669 52.9859C28.1574 52.7564 28.3955 52.5692 28.6653 52.4368L30.58 51.4973C30.6812 52.341 30.5431 53.1957 30.1809 53.9673C29.8187 54.7389 29.2465 55.3974 28.5273 55.8703L28.2491 56.053L27.8465 55.4624ZM75.2416 39.502C77.0009 41.031 78.4099 42.9086 79.3758 45.011C80.3418 47.1133 80.8427 49.3928 80.8454 51.699C80.8495 52.863 80.5211 54.0049 79.8976 54.9951C79.274 55.9853 78.3802 56.7842 77.3175 57.3012C76.4305 57.7338 75.4535 57.9589 74.463 57.9589C73.4726 57.9589 72.4956 57.7338 71.6086 57.3012C70.5458 56.7842 69.6519 55.9853 69.0283 54.9951C68.4047 54.0049 68.0763 52.863 68.0804 51.699V47.3346C68.0801 43.6268 67.0532 39.9887 65.1096 36.8092L62.9427 33.2648C62.881 33.1641 62.8134 33.0667 62.7504 32.9668C66.3109 33.9162 69.6701 35.4818 72.6699 37.5898C73.5475 38.2045 74.4047 38.8419 75.2416 39.502ZM114.886 121.588L100.715 121.618L101.437 119.256C104.732 108.521 105.737 97.2347 104.388 86.1016C102.835 73.2586 98.2222 60.9547 90.9245 50.1853C87.3618 44.9353 82.9972 40.2544 77.9839 36.3071C77.4701 35.8655 76.9332 35.4458 76.3718 35.052C76.3068 35.0067 76.2392 34.9649 76.1694 34.927C75.8301 34.6791 75.4889 34.4327 75.144 34.191C71.0623 31.3213 66.4031 29.3405 61.4782 28.381C58.7448 27.8455 55.9164 28.0183 53.2718 28.8824L48.219 30.5352C46.605 31.0616 45.1277 31.9276 43.8903 33.0726C42.6529 34.2175 41.6852 35.6139 41.0549 37.1641L38.7473 42.8209L26.7617 48.7019C25.9522 49.0991 25.2381 49.6606 24.6667 50.3493C24.0953 51.0381 23.6796 51.8381 23.4474 52.6965C23.2151 53.5549 23.1715 54.4519 23.3194 55.3281C23.4674 56.2043 23.8035 57.0396 24.3055 57.7786L25.8865 60.1055L30.1415 66.369C30.3539 66.6817 30.6484 66.9322 30.9938 67.0943C31.3392 67.2564 31.7228 67.3241 32.1041 67.2901L33.9984 67.1209C32.5572 68.41 31.3715 69.9496 30.5011 71.662L30.0577 72.5321L28.4105 75.072C24.1061 81.7 21.322 89.1673 20.2511 96.9563C19.1802 104.745 19.8482 112.67 22.2088 120.18L22.7104 121.78L4.25502 121.819V37.4076L59.5743 5.00542L114.886 37.1717V121.588Z" fill="#1D566E"/>
<path d="M48.9328 91.049C50.5484 91.049 51.8581 89.7637 51.8581 88.1782C51.8581 86.5927 50.5484 85.3074 48.9328 85.3074C47.3172 85.3074 46.0074 86.5927 46.0074 88.1782C46.0074 89.7637 47.3172 91.049 48.9328 91.049Z" fill="#1D566E"/>
<path d="M50.2625 48.509C51.8781 48.509 53.1878 47.2237 53.1878 45.6382C53.1878 44.0527 51.8781 42.7674 50.2625 42.7674C48.6469 42.7674 47.3372 44.0527 47.3372 45.6382C47.3372 47.2237 48.6469 48.509 50.2625 48.509Z" fill="#1D566E"/>
</svg>
