<svg width="30" height="30" viewBox="0 0 15 15" fill="none" xmlns="http://www.w3.org/2000/svg">
<path fill-rule="evenodd" clip-rule="evenodd" d="M7.4375 0C6.71263 0 6.125 0.587627 6.125 1.3125V6.125H1.3125C0.587626 6.125 0 6.71263 0 7.4375C0 8.16237 0.587627 8.75 1.3125 8.75H6.125V13.5625C6.125 14.2874 6.71263 14.875 7.4375 14.875C8.16237 14.875 8.75 14.2874 8.75 13.5625V8.75H13.5625C14.2874 8.75 14.875 8.16237 14.875 7.4375C14.875 6.71263 14.2874 6.125 13.5625 6.125H8.75V1.3125C8.75 0.587626 8.16237 0 7.4375 0Z" fill="#6bd6a9"/>
</svg>
